# xmcd CD database file
#
# Track frame offsets:
#	150
#	68987
#	110355
#	153331
#	201504
#
# Disc length: 3437 seconds
#
# Revision: 0
# Processed by: cddbd v1.5.1PL2 Copyright (c) Steve Scherf et al.
# Submitted via: CDex 1.51
#
DISCID=420d6b05
DTITLE=Nik Bärtsch's Ronin - Stoa
DYEAR=2006
DGENRE=Jazz
TTITLE0=Modul 36
TTITLE1=Modul 35
TTITLE2=Modul 32
TTITLE3=Modul 33
TTITLE4=Modul 38_17
EXTD=YEAR: 2006
EXTT0=
EXTT1=
EXTT2=
EXTT3=
EXTT4=
PLAYORDER=
